<svg width="52" height="49" viewBox="0 0 52 49" fill="none" xmlns="http://www.w3.org/2000/svg">
<path d="M47.3613 6.53333H10.8096L7.68716 1.00613C7.51514 0.701196 7.26379 0.447159 6.95908 0.270277C6.65437 0.0933958 6.30736 8.88134e-05 5.95391 0H1.98464C1.45828 1.09545e-08 0.953478 0.206499 0.581286 0.57407C0.209095 0.941642 0 1.44018 0 1.96C0 2.47982 0.209095 2.97836 0.581286 3.34593C0.953478 3.7135 1.45828 3.92 1.98464 3.92H4.78959L7.86974 9.37664L14.9774 24.9051L14.9853 24.9207L15.6125 26.2875L8.47572 33.8061C8.22419 34.0711 8.05221 34.4 7.97895 34.756C7.90569 35.112 7.93404 35.481 8.06084 35.822C8.18765 36.163 8.40791 36.4625 8.69704 36.687C8.98618 36.9116 9.33281 37.0524 9.69825 37.0937L16.2026 37.828C24.3386 38.7479 32.5543 38.7479 40.6903 37.828L47.1946 37.0963C47.7178 37.0374 48.1959 36.7756 48.5237 36.3686C48.8515 35.9615 49.0021 35.4426 48.9424 34.9259C48.8828 34.4092 48.6177 33.937 48.2056 33.6133C47.7935 33.2896 47.268 33.1409 46.7448 33.1998L40.2405 33.9315C32.4033 34.816 24.4896 34.816 16.6524 33.9315L14.0724 33.6441L19.3118 28.1247C19.3616 28.0715 19.4084 28.0156 19.4521 27.9574L21.442 28.2135C24.2337 28.5742 27.0572 28.6447 29.8622 28.4226C33.1023 28.1696 36.2595 27.2845 39.151 25.8185C42.0425 24.3526 44.611 22.3349 46.7077 19.8822L48.2399 18.0921C48.2905 18.0323 48.3373 17.9694 48.3801 17.9039L51.2327 13.6129C53.2544 10.5709 51.0448 6.53333 47.3613 6.53333ZM13.8924 41.16C12.8397 41.16 11.8301 41.573 11.0858 42.3081C10.3414 43.0433 9.92318 44.0403 9.92318 45.08C9.92318 46.1196 10.3414 47.1167 11.0858 47.8519C11.8301 48.587 12.8397 49 13.8924 49C14.9452 49 15.9548 48.587 16.6991 47.8519C17.4435 47.1167 17.8617 46.1196 17.8617 45.08C17.8617 44.0403 17.4435 43.0433 16.6991 42.3081C15.9548 41.573 14.9452 41.16 13.8924 41.16ZM39.0312 45.08C39.0312 44.0403 39.4494 43.0433 40.1937 42.3081C40.9381 41.573 41.9477 41.16 43.0004 41.16C44.0532 41.16 45.0628 41.573 45.8071 42.3081C46.5515 43.0433 46.9697 44.0403 46.9697 45.08C46.9697 46.1196 46.5515 47.1167 45.8071 47.8519C45.0628 48.587 44.0532 49 43.0004 49C41.9477 49 40.9381 48.587 40.1937 47.8519C39.4494 47.1167 39.0312 46.1196 39.0312 45.08Z" fill="#212326"/>
</svg>
